<!-- Generated by IcoMoon.io -->
<svg version="1.1" xmlns="http://www.w3.org/2000/svg" width="86" height="100" viewBox="0 0 86 100">
<title>clock-o</title>
<path fill="#4e91fd" d="M50 30.357v25c0 1.004-0.781 1.786-1.786 1.786h-17.857c-1.004 0-1.786-0.781-1.786-1.786v-3.571c0-1.004 0.781-1.786 1.786-1.786h12.5v-19.643c0-1.004 0.781-1.786 1.786-1.786h3.571c1.004 0 1.786 0.781 1.786 1.786zM73.214 50c0-16.741-13.616-30.357-30.357-30.357s-30.357 13.616-30.357 30.357 13.616 30.357 30.357 30.357 30.357-13.616 30.357-30.357zM85.714 50c0 23.661-19.196 42.857-42.857 42.857s-42.857-19.196-42.857-42.857 19.196-42.857 42.857-42.857 42.857 19.196 42.857 42.857z"></path>
</svg>
