<!-- Generated by IcoMoon.io -->
<svg version="1.1" xmlns="http://www.w3.org/2000/svg" width="104" height="100" viewBox="0 0 104 100">
<title>flag</title>
<path fill="#4e91fd" d="M17.857 14.286c0 2.567-1.395 4.855-3.571 6.138v70.647c0 0.949-0.837 1.786-1.786 1.786h-3.571c-0.949 0-1.786-0.837-1.786-1.786v-70.647c-2.176-1.283-3.571-3.571-3.571-6.138 0-3.962 3.181-7.143 7.143-7.143s7.143 3.181 7.143 7.143zM100 17.857v42.578c0 2.065-1.283 2.846-2.902 3.683-6.306 3.404-13.281 6.473-20.592 6.473-10.268 0-15.179-7.813-27.344-7.813-8.873 0-18.192 4.018-25.893 8.147-0.614 0.335-1.172 0.502-1.842 0.502-1.953 0-3.571-1.618-3.571-3.571v-41.406c0-1.339 0.67-2.288 1.73-3.069 1.339-0.893 2.958-1.674 4.408-2.4 7.031-3.571 15.569-6.696 23.493-6.696 8.761 0 15.625 2.902 23.382 6.529 1.563 0.781 3.181 1.060 4.911 1.060 8.761 0 18.192-7.589 20.647-7.589 1.953 0 3.571 1.618 3.571 3.571z"></path>
</svg>
