<!-- Generated by IcoMoon.io -->
<svg version="1.1" xmlns="http://www.w3.org/2000/svg" width="104" height="100" viewBox="0 0 104 100">
<title>flag-checkered</title>
<path fill="#4e91fd" d="M46.429 55.804v-10.714c-6.808 0.614-15.011 3.348-21.429 6.529v10.324c6.473-3.013 14.509-5.58 21.429-6.138zM46.429 32.478v-10.993c-7.031 0.335-15.29 3.627-21.429 7.031v10.547c6.585-3.404 14.509-6.306 21.429-6.585zM92.857 58.315v-10.268c-5.078 2.511-13.951 6.25-21.429 3.962v-12.5c-0.725-0.223-1.451-0.502-2.176-0.837-6.417-3.237-11.663-6.25-20.089-6.25-0.893 0-1.786 0.056-2.734 0.167v12.388h1.060c8.426 0 15.346 3.013 21.763 6.194 0.725 0.335 1.451 0.614 2.176 0.837v10.491c1.507 0.614 3.181 0.949 5.078 0.949 6.194 0 12.891-3.292 16.35-5.134zM92.857 34.487v-10.547c-4.464 2.4-10.714 5.078-17.076 5.078v0c-1.507 0-2.958-0.112-4.353-0.446v10.938c7.478 2.121 16.35-2.176 21.429-5.022zM17.857 14.286c0 2.623-1.451 4.911-3.571 6.138v70.647c0 1.004-0.781 1.786-1.786 1.786h-3.571c-1.004 0-1.786-0.781-1.786-1.786v-70.647c-2.121-1.228-3.571-3.516-3.571-6.138 0-3.962 3.181-7.143 7.143-7.143s7.143 3.181 7.143 7.143zM100 17.857v42.578c0 1.339-0.781 2.567-1.953 3.181-0.223 0.112-0.558 0.279-0.949 0.502-3.571 1.897-11.998 6.473-20.592 6.473-3.292 0-6.25-0.67-8.817-1.953l-1.563-0.781c-5.636-2.846-10.1-5.078-16.964-5.078-8.036 0-19.364 4.185-25.893 8.147-0.558 0.335-1.228 0.502-1.842 0.502s-1.228-0.167-1.786-0.446c-1.116-0.67-1.786-1.842-1.786-3.125v-41.406c0-1.228 0.67-2.4 1.73-3.069 3.571-2.121 16.183-9.096 27.902-9.096 9.319 0 16.908 3.404 23.326 6.529 1.451 0.725 3.125 1.060 4.967 1.060 6.585 0 13.839-4.185 17.299-6.25 0.725-0.391 1.339-0.725 1.73-0.949 1.116-0.558 2.4-0.502 3.46 0.112 1.060 0.67 1.73 1.842 1.73 3.069z"></path>
</svg>
