<!-- Generated by IcoMoon.io -->
<svg version="1.1" xmlns="http://www.w3.org/2000/svg" width="107" height="100" viewBox="0 0 107 100">
<title>money</title>
<path fill="#4e91fd" d="M42.857 64.286h21.429v-5.357h-7.143v-25h-6.362l-8.259 7.645 4.297 4.464c1.339-1.172 2.176-1.786 3.069-3.181h0.112v16.071h-7.143v5.357zM71.429 50c0 10.156-6.138 23.214-17.857 23.214s-17.857-13.058-17.857-23.214 6.138-23.214 17.857-23.214 17.857 13.058 17.857 23.214zM100 64.286v-28.571c-7.868 0-14.286-6.417-14.286-14.286h-64.286c0 7.868-6.417 14.286-14.286 14.286v28.571c7.868 0 14.286 6.417 14.286 14.286h64.286c0-7.868 6.417-14.286 14.286-14.286zM107.143 17.857v64.286c0 1.953-1.618 3.571-3.571 3.571h-100c-1.953 0-3.571-1.618-3.571-3.571v-64.286c0-1.953 1.618-3.571 3.571-3.571h100c1.953 0 3.571 1.618 3.571 3.571z"></path>
</svg>
