<!-- Generated by IcoMoon.io -->
<svg version="1.1" xmlns="http://www.w3.org/2000/svg" width="79" height="100" viewBox="0 0 79 100">
<title>phone</title>
<path fill="#4e91fd" d="M78.571 69.196c0 2.009-0.893 5.915-1.73 7.757-1.172 2.734-4.297 4.52-6.808 5.915-3.292 1.786-6.641 2.846-10.379 2.846-5.19 0-9.877-2.121-14.621-3.85-3.404-1.228-6.696-2.734-9.766-4.632-9.487-5.859-20.926-17.299-26.786-26.786-1.897-3.069-3.404-6.362-4.632-9.766-1.73-4.743-3.85-9.431-3.85-14.621 0-3.739 1.060-7.087 2.846-10.379 1.395-2.511 3.181-5.636 5.915-6.808 1.842-0.837 5.748-1.73 7.757-1.73 0.391 0 0.781 0 1.172 0.167 1.172 0.391 2.4 3.125 2.958 4.241 1.786 3.181 3.516 6.417 5.357 9.542 0.893 1.451 2.567 3.237 2.567 4.967 0 3.404-10.1 8.371-10.1 11.384 0 1.507 1.395 3.46 2.176 4.799 5.636 10.156 12.667 17.188 22.824 22.824 1.339 0.781 3.292 2.176 4.799 2.176 3.013 0 7.98-10.1 11.384-10.1 1.73 0 3.516 1.674 4.967 2.567 3.125 1.842 6.362 3.571 9.542 5.357 1.116 0.558 3.85 1.786 4.241 2.958 0.167 0.391 0.167 0.781 0.167 1.172z"></path>
</svg>
