<!-- Generated by IcoMoon.io -->
<svg version="1.1" xmlns="http://www.w3.org/2000/svg" width="86" height="100" viewBox="0 0 86 100">
<title>sign-in</title>
<path fill="#4e91fd" d="M66.071 50c0 0.949-0.391 1.842-1.060 2.511l-30.357 30.357c-0.67 0.67-1.563 1.060-2.511 1.060-1.953 0-3.571-1.618-3.571-3.571v-16.071h-25c-1.953 0-3.571-1.618-3.571-3.571v-21.429c0-1.953 1.618-3.571 3.571-3.571h25v-16.071c0-1.953 1.618-3.571 3.571-3.571 0.949 0 1.842 0.391 2.511 1.060l30.357 30.357c0.67 0.67 1.060 1.563 1.060 2.511zM85.714 30.357v39.286c0 8.873-7.199 16.071-16.071 16.071h-17.857c-0.949 0-1.786-0.837-1.786-1.786 0-1.563-0.725-5.357 1.786-5.357h17.857c4.911 0 8.929-4.018 8.929-8.929v-39.286c0-4.911-4.018-8.929-8.929-8.929h-16.071c-1.395 0-3.571 0.279-3.571-1.786 0-1.563-0.725-5.357 1.786-5.357h17.857c8.873 0 16.071 7.199 16.071 16.071z"></path>
</svg>
